<svg width="240" height="32" xmlns="http://www.w3.org/2000/svg" xmlns:xlink="http://www.w3.org/1999/xlink"><defs><path id="a" d="M.048.118h18.225v21.65H.048z"/></defs><g fill="none" fill-rule="evenodd"><g transform="translate(0 9.533)"><mask id="b" fill="#fff"><use xlink:href="#a"/></mask><path d="M5.005.197l.04.04v4.49h.08C5.957 2.302 8.54.117 11.876.117c3.973 0 5.76 1.788 5.76 5.998v8.62c0 2.225.08 5.006.636 7.032h-5.124c.437-1.827.516-4.25.516-6.872V6.752c0-2.383-.993-3.417-3.615-3.417-2.224 0-3.933.835-4.886 1.987v9.574c0 2.621.04 5.045.516 6.872H.556c.555-2.026.636-4.807.636-7.032V6.99C1.192 4.647.714 2.62 0 1.707L5.005.197" fill="#ED1C24" mask="url(#b)"/></g><path d="M31.063 26.971v-7.945c-.477.953-2.264 1.907-3.774 2.542-2.463 1.033-3.258 1.987-3.258 4.33 0 2.186 1.193 3.338 3.218 3.338 2.065 0 3.258-.954 3.814-2.265zM28.32 9.651c4.887 0 6.754 2.146 6.754 6.277v10.368c0 1.708.675 2.463 2.026 2.463.437 0 1.073-.159 1.35-.397-.079.436-.159.794-.237 1.072-.557 1.39-1.47 2.304-3.258 2.304-2.622 0-3.655-1.907-3.734-4.091h-.08c-.755 2.462-2.542 4.13-5.76 4.13-3.455 0-5.482-2.184-5.522-5.203 0-2.702 2.026-4.569 5.76-5.92 2.384-.913 5.443-1.985 5.443-4.17v-.993c0-2.742-.914-4.013-3.735-4.013-1.589 0-2.224.716-2.542 2.345-.317 1.747-.953 2.502-2.185 2.502-.953 0-1.946-.675-1.946-1.946 0-2.86 3.854-4.727 7.666-4.727z" fill="#ED1C24" fill-rule="nonzero"/><path d="M49.612 29.394c-.596 1.39-2.104 2.384-4.37 2.384-3.773 0-5.56-1.867-5.56-5.92V12.591h-2.503v-.12l6.356-6.713.119.04v4.29h5.482l-.477 2.503h-5.005v13.03c0 2.264 1.231 3.138 3.1 3.138 1.428 0 2.343-.238 3.177-.636-.08.517-.12.795-.319 1.271M55.133 9.85v14.737c0 2.742 1.033 4.41 3.814 4.41 2.463 0 4.29-1.27 5.085-2.7V15.728c0-1.668-.16-3.813-.676-5.363l4.648-.516V24.51c0 2.501.16 4.885.675 6.792H64.15v-4.41h-.04c-.675 2.543-2.741 4.887-6.673 4.887-4.688 0-6.277-2.741-6.277-6.952V15.73c0-1.668-.199-3.813-.676-5.363l4.648-.516M75.749 14.855c.794-3.496 2.582-5.244 5.442-5.244 1.589 0 2.86.835 2.86 2.503 0 1.47-.715 2.304-2.106 2.304-.794 0-1.27-.397-1.627-.834-.398-.476-.795-.914-1.39-.914-1.71 0-3.14 2.265-3.14 4.926v6.714c0 2.582.04 5.124.517 6.991H71.18c.556-2.026.634-4.806.634-7.032v-7.745c0-2.344-.475-4.37-1.191-5.283l5.006-1.51.04.04v5.084h.079" fill="#ED1C24"/><path d="M87.626 18.232l8.897-.596c-.118-3.933-.754-6.038-3.813-6.038-2.94 0-4.687 2.383-5.084 6.634zm5.204 13.546c-4.887 0-9.375-3.456-9.375-10.567 0-6.832 3.852-11.56 9.335-11.56 5.522 0 7.945 3.178 7.945 9.892H87.546v.635c0 6.039 2.78 8.303 6.873 8.303 3.575 0 5.521-1.708 6.435-2.821l.08.239c-.915 3.217-3.457 5.879-8.104 5.879z" fill="#ED1C24" fill-rule="nonzero"/><path d="M112.293 14.855c.795-3.496 2.582-5.244 5.442-5.244 1.589 0 2.86.835 2.86 2.503 0 1.47-.715 2.304-2.105 2.304-.795 0-1.271-.397-1.629-.834-.397-.476-.794-.914-1.39-.914-1.709 0-3.139 2.265-3.139 4.926v6.714c0 2.582.04 5.124.517 6.991h-5.124c.555-2.026.635-4.806.635-7.032v-7.745c0-2.344-.477-4.37-1.192-5.283l5.005-1.51.04.04v5.084h.08" fill="#575756"/><path d="M123.97 18.232l8.9-.596c-.12-3.933-.755-6.038-3.815-6.038-2.94 0-4.687 2.383-5.084 6.634zm5.205 13.546c-4.887 0-9.375-3.456-9.375-10.567 0-6.832 3.853-11.56 9.335-11.56 5.522 0 7.945 3.178 7.945 9.892H123.89v.635c0 6.039 2.78 8.303 6.873 8.303 3.575 0 5.521-1.708 6.435-2.821l.08.239c-.914 3.217-3.456 5.879-8.104 5.879z" fill="#575756" fill-rule="nonzero"/><path d="M150.902 10.645l.2 4.051h-.12c-1.588-1.867-3.218-3.058-5.52-3.058-1.829 0-3.299.794-3.299 2.7 0 1.828.914 2.742 4.37 4.211 3.457 1.43 6.078 2.98 6.078 6.357 0 3.337-1.787 6.872-7.508 6.872-2.344 0-4.489-.477-6.276-1.47l-.239-4.728h.159c1.51 2.026 3.853 4.212 6.276 4.212 3.06 0 4.013-1.152 4.013-3.297 0-2.305-1.191-2.94-4.41-4.37-3.614-1.59-5.918-2.9-5.918-6.475 0-3.298 2.502-5.998 6.792-5.998 2.742 0 4.41.515 5.402.993" fill="#575756"/><path d="M157.893 18.232l8.898-.596c-.118-3.933-.754-6.038-3.813-6.038-2.94 0-4.687 2.383-5.085 6.634zm5.205 13.546c-4.887 0-9.375-3.456-9.375-10.567 0-6.832 3.853-11.56 9.334-11.56 5.523 0 7.946 3.178 7.946 9.892h-13.189v.635c0 6.039 2.78 8.303 6.873 8.303 3.575 0 5.521-1.708 6.434-2.821l.08.239c-.913 3.217-3.456 5.879-8.103 5.879zM183.633 26.971v-7.945c-.476.953-2.264 1.907-3.774 2.542-2.463 1.033-3.257 1.987-3.257 4.33 0 2.186 1.191 3.338 3.218 3.338 2.065 0 3.257-.954 3.813-2.265zm-2.741-17.32c4.886 0 6.753 2.146 6.753 6.277v10.368c0 1.708.676 2.463 2.026 2.463.437 0 1.073-.159 1.35-.397-.078.436-.158.794-.238 1.072-.556 1.39-1.47 2.304-3.257 2.304-2.621 0-3.655-1.907-3.734-4.091h-.08c-.754 2.462-2.541 4.13-5.76 4.13-3.455 0-5.481-2.184-5.521-5.203 0-2.702 2.026-4.569 5.76-5.92 2.383-.913 5.442-1.985 5.442-4.17v-.993c0-2.742-.914-4.013-3.734-4.013-1.59 0-2.225.716-2.542 2.345-.318 1.747-.954 2.502-2.185 2.502-.954 0-1.947-.675-1.947-1.946 0-2.86 3.853-4.727 7.667-4.727z" fill="#575756" fill-rule="nonzero"/><path d="M196.344 14.855c.794-3.496 2.582-5.244 5.443-5.244 1.588 0 2.86.835 2.86 2.503 0 1.47-.716 2.304-2.107 2.304-.794 0-1.27-.397-1.628-.834-.397-.476-.795-.914-1.39-.914-1.709 0-3.139 2.265-3.139 4.926v6.714c0 2.582.04 5.124.518 6.991h-5.125c.556-2.026.635-4.806.635-7.032v-7.745c0-2.344-.476-4.37-1.192-5.283l5.006-1.51.04.04v5.084h.079M213.187 31.778c-5.324 0-9.336-3.853-9.336-10.527 0-7.667 5.085-11.6 10.13-11.6 4.687 0 6.435 2.105 6.435 4.091 0 1.47-.715 2.305-2.145 2.305-1.272 0-1.906-.874-2.066-2.463-.12-1.709-.635-1.986-2.503-1.986-3.336 0-5.8 3.178-5.8 8.421 0 5.72 2.583 8.462 6.595 8.462 2.622 0 4.966-.993 6.158-2.424l.079.24c-.794 2.581-3.178 5.48-7.547 5.48M226.652 14.22h.08c.794-2.423 3.337-4.568 6.673-4.568 3.973 0 5.76 1.787 5.76 5.998v8.62c0 2.225.079 5.005.636 7.031h-5.125c.437-1.827.517-4.25.517-6.872v-8.144c0-2.383-.993-3.417-3.616-3.417-2.224 0-3.932.835-4.885 1.987v9.574c0 2.622.04 5.045.516 6.872h-5.124c.556-2.026.635-4.806.635-7.032V7.15c0-2.543-.476-4.49-1.152-5.443l5.164-1.47.08.04-.16 6.118v7.826" fill="#575756"/></g></svg>
